<?xml version="1.0" encoding="utf-8"?>
<!-- Generator: Adobe Illustrator 25.4.1, SVG Export Plug-In . SVG Version: 6.00 Build 0)  -->
<svg version="1.1" id="Layer_1" xmlns="http://www.w3.org/2000/svg" xmlns:xlink="http://www.w3.org/1999/xlink" x="0px" y="0px"
	 viewBox="0 0 1728 864" style="enable-background:new 0 0 1728 864;" xml:space="preserve">
<style type="text/css">
	.st0{fill:none;stroke:#000000;stroke-width:0.072;stroke-linecap:round;stroke-miterlimit:10;}
	.st1{fill:none;stroke:#000000;stroke-width:0.072;stroke-linecap:round;stroke-miterlimit:11.3386;}
	.st2{fill:none;stroke:#000000;stroke-width:0.072;stroke-miterlimit:10;}
	.st3{fill:#808080;}
</style>
<g id="p-0_00000177482766689715916420000002211004034695982262_">
	<path class="st0" d="M386.98,717.86h18c0.16,0,0.28-0.13,0.28-0.28v-8.72c0-0.28-0.28,0,0,0h17.43c0.28,0,0-0.28,0,0v8.72
		c0,0.16,0.13,0.28,0.28,0.28h18c0.16,0,0.28-0.13,0.28-0.28v-8.72c0-0.28-0.28,0,0,0h17.43c0.28,0,0-0.28,0,0v8.72
		c0,0.16,0.13,0.28,0.28,0.28h18c0.16,0,0.28-0.13,0.28-0.28v-8.72c0-0.28-0.28,0,0,0h17.43c0.28,0,0-0.28,0,0v8.72
		c0,0.16,0.13,0.28,0.28,0.28h18c0.16,0,0.28-0.13,0.28-0.28v-8.72c0-0.28-0.28,0,0,0h17.43c0.28,0,0-0.28,0,0v8.72
		c0,0.16,0.13,0.28,0.28,0.28h18h9c0.16,0,0.28-0.13,0.28-0.28v-9v-27c0-0.16-0.13-0.28-0.28-0.28h-8.72c-0.28,0,0,0.28,0,0v-17.43
		c0-0.28-0.28,0,0,0h8.72c0.16,0,0.28-0.13,0.28-0.28v-18c0-0.16-0.13-0.28-0.28-0.28h-8.72c-0.28,0,0,0.28,0,0v-17.43
		c0-0.28-0.28,0,0,0h8.72c0.16,0,0.28-0.13,0.28-0.28v-18c0-0.16-0.13-0.28-0.28-0.28h-8.72c-0.28,0,0,0.28,0,0v-17.43
		c0-0.28-0.28,0,0,0h8.72c0.16,0,0.28-0.13,0.28-0.28v-18c0-0.16-0.13-0.28-0.28-0.28h-8.72c-0.28,0,0,0.28,0,0v-17.43
		c0-0.28-0.28,0,0,0h8.72c0.16,0,0.28-0.13,0.28-0.28v-18c0-0.16-0.13-0.28-0.28-0.28h-8.72c-0.28,0,0,0.28,0,0v-17.43
		c0-0.28-0.28,0,0,0h8.72c0.16,0,0.28-0.13,0.28-0.28v-18c0-0.16-0.13-0.28-0.28-0.28h-8.72c-0.28,0,0,0.28,0,0v-17.43
		c0-0.28-0.28,0,0,0h8.72c0.16,0,0.28-0.13,0.28-0.28v-18c0-0.16-0.13-0.28-0.28-0.28h-8.72c-0.28,0,0,0.28,0,0v-17.43
		c0-0.28-0.28,0,0,0h8.72c0.16,0,0.28-0.13,0.28-0.28v-18c0-0.16-0.13-0.28-0.28-0.28h-8.72c-0.28,0,0,0.28,0,0v-17.43
		c0-0.28-0.28,0,0,0h8.72c0.16,0,0.28-0.13,0.28-0.28v-27v-9c0-0.16-0.13-0.28-0.28-0.28h-9h-18c-0.16,0-0.28,0.13-0.28,0.28v8.72
		c0,0.28,0.28,0,0,0h-17.43c-0.28,0,0,0.28,0,0v-8.72c0-0.16-0.13-0.28-0.28-0.28h-18c-0.16,0-0.28,0.13-0.28,0.28v8.72
		c0,0.28,0.28,0,0,0h-17.43c-0.28,0,0,0.28,0,0v-8.72c0-0.16-0.13-0.28-0.28-0.28h-18c-0.16,0-0.28,0.13-0.28,0.28v8.72
		c0,0.28,0.28,0,0,0h-17.43c-0.28,0,0,0.28,0,0v-8.72c0-0.16-0.13-0.28-0.28-0.28h-18c-0.16,0-0.28,0.13-0.28,0.28v8.72
		c0,0.28,0.28,0,0,0h-17.43c-0.28,0,0,0.28,0,0v-8.72c0-0.16-0.13-0.28-0.28-0.28h-18h-9c-0.16,0-0.28,0.13-0.28,0.28v9v27
		c0,0.16,0.13,0.28,0.28,0.28h8.72c0.28,0,0-0.28,0,0v17.43c0,0.28,0.28,0,0,0h-8.72c-0.16,0-0.28,0.13-0.28,0.28v18
		c0,0.16,0.13,0.28,0.28,0.28h8.72c0.28,0,0-0.28,0,0v17.43c0,0.28,0.28,0,0,0h-8.72c-0.16,0-0.28,0.13-0.28,0.28v18
		c0,0.16,0.13,0.28,0.28,0.28h8.72c0.28,0,0-0.28,0,0v17.43c0,0.28,0.28,0,0,0h-8.72c-0.16,0-0.28,0.13-0.28,0.28v18
		c0,0.16,0.13,0.28,0.28,0.28h8.72c0.28,0,0-0.28,0,0v17.43c0,0.28,0.28,0,0,0h-8.72c-0.16,0-0.28,0.13-0.28,0.28v18
		c0,0.16,0.13,0.28,0.28,0.28h8.72c0.28,0,0-0.28,0,0v17.43c0,0.28,0.28,0,0,0h-8.72c-0.16,0-0.28,0.13-0.28,0.28v18
		c0,0.16,0.13,0.28,0.28,0.28h8.72c0.28,0,0-0.28,0,0v17.43c0,0.28,0.28,0,0,0h-8.72c-0.16,0-0.28,0.13-0.28,0.28v18
		c0,0.16,0.13,0.28,0.28,0.28h8.72c0.28,0,0-0.28,0,0v17.43c0,0.28,0.28,0,0,0h-8.72c-0.16,0-0.28,0.13-0.28,0.28v18
		c0,0.16,0.13,0.28,0.28,0.28h8.72c0.28,0,0-0.28,0,0v17.43c0,0.28,0.28,0,0,0h-8.72c-0.16,0-0.28,0.13-0.28,0.28v27v9
		c0,0.16,0.13,0.28,0.28,0.28H386.98z"/>
</g>
<g id="p-1_00000142857787779082676330000002587230229367831723_">
	<path class="st1" d="M572.04,717.86h18c0.16,0,0.28-0.13,0.28-0.28v-8.72c0-0.28-0.28,0,0,0h17.44c0.28,0,0-0.28,0,0v8.72
		c0,0.16,0.12,0.28,0.28,0.28h18c0.16,0,0.28-0.13,0.28-0.28v-8.72c0-0.28-0.28,0,0,0h17.43c0.28,0,0-0.28,0,0v8.72
		c0,0.16,0.12,0.28,0.28,0.28h18c0.16,0,0.28-0.13,0.28-0.28v-8.72c0-0.28-0.28,0,0,0h17.43c0.28,0,0-0.28,0,0v8.72
		c0,0.16,0.13,0.28,0.28,0.28h18c0.16,0,0.28-0.13,0.28-0.28v-8.72c0-0.28-0.28,0,0,0h17.44c0.28,0,0-0.28,0,0v8.72
		c0,0.16,0.12,0.28,0.28,0.28h18c0.16,0,0.28-0.13,0.28-0.28v-8.72c0-0.28-0.28,0,0,0h17.44c0.28,0,0-0.28,0,0v8.72
		c0,0.16,0.12,0.28,0.28,0.28h18c0.16,0,0.28-0.13,0.28-0.28v-8.72c0-0.28-0.28,0,0,0h17.43c0.28,0,0-0.28,0,0v8.72
		c0,0.16,0.12,0.28,0.28,0.28h18c0.16,0,0.28-0.13,0.28-0.28v-8.72c0-0.28-0.28,0,0,0h17.43c0.28,0,0-0.28,0,0v8.72
		c0,0.16,0.13,0.28,0.28,0.28h18c0.16,0,0.28-0.13,0.28-0.28v-8.72c0-0.28-0.28,0,0,0h17.43c0.28,0,0-0.28,0,0v8.72
		c0,0.16,0.12,0.28,0.28,0.28h18c0.16,0,0.28-0.13,0.28-0.28v-8.72c0-0.28-0.28,0,0,0h17.43c0.28,0,0-0.28,0,0v8.72
		c0,0.16,0.13,0.28,0.28,0.28h18c0.16,0,0.28-0.13,0.28-0.28v-8.72c0-0.28-0.28,0,0,0h17.44c0.28,0,0-0.28,0,0v8.72
		c0,0.16,0.12,0.28,0.28,0.28h18c0.16,0,0.28-0.13,0.28-0.28v-8.72c0-0.28-0.28,0,0,0h17.43c0.28,0,0-0.28,0,0v8.72
		c0,0.16,0.13,0.28,0.28,0.28h18c0.16,0,0.28-0.13,0.28-0.28v-8.72c0-0.28-0.28,0,0,0h17.43c0.28,0,0-0.28,0,0v8.72
		c0,0.16,0.13,0.28,0.28,0.28h18c0.16,0,0.28-0.13,0.28-0.28v-8.72c0-0.28-0.28,0,0,0h17.43c0.28,0,0-0.28,0,0v8.72
		c0,0.16,0.12,0.28,0.28,0.28h18c0.16,0,0.28-0.13,0.28-0.28v-8.72c0-0.28-0.28,0,0,0h17.43c0.28,0,0-0.28,0,0v8.72
		c0,0.16,0.13,0.28,0.28,0.28h18c0.16,0,0.28-0.13,0.28-0.28v-8.72c0-0.28-0.28,0,0,0h17.43c0.28,0,0-0.28,0,0v8.72
		c0,0.16,0.13,0.28,0.28,0.28h18c0.16,0,0.28-0.13,0.28-0.28v-8.72c0-0.28-0.28,0,0,0h17.43c0.28,0,0-0.28,0,0v8.72
		c0,0.16,0.12,0.28,0.28,0.28h18c0.16,0,0.28-0.13,0.28-0.28v-8.72c0-0.28-0.28,0,0,0h17.43c0.28,0,0-0.28,0,0v8.72
		c0,0.16,0.12,0.28,0.28,0.28h18c0.16,0,0.29-0.13,0.29-0.28v-8.72c0-0.28-0.29,0,0,0h17.43c0.29,0,0-0.28,0,0v8.72
		c0,0.16,0.13,0.28,0.29,0.28h18c0.16,0,0.28-0.13,0.28-0.28v-8.72c0-0.28-0.28,0,0,0h17.43c0.29,0,0-0.28,0,0v8.72
		c0,0.16,0.13,0.28,0.29,0.28h18c0.16,0,0.28-0.13,0.28-0.28v-9v-26.72c0-0.28-0.28,0,0,0h8.72c0.16,0,0.28-0.13,0.28-0.28v-18
		c0-0.16-0.13-0.28-0.28-0.28h-8.72c-0.28,0,0,0.28,0,0v-17.43c0-0.28-0.28,0,0,0h8.72c0.16,0,0.28-0.13,0.28-0.28v-18
		c0-0.16-0.13-0.28-0.28-0.28h-8.72c-0.28,0,0,0.28,0,0v-17.43c0-0.28-0.28,0,0,0h8.72c0.16,0,0.28-0.13,0.28-0.28v-18
		c0-0.16-0.13-0.28-0.28-0.28h-8.72c-0.28,0,0,0.28,0,0v-17.43c0-0.28-0.28,0,0,0h8.72c0.16,0,0.28-0.13,0.28-0.28v-18
		c0-0.16-0.13-0.28-0.28-0.28h-8.72c-0.28,0,0,0.28,0,0v-17.43c0-0.28-0.28,0,0,0h8.72c0.16,0,0.28-0.13,0.28-0.28v-18
		c0-0.16-0.13-0.28-0.28-0.28h-8.72c-0.28,0,0,0.28,0,0v-17.43c0-0.28-0.28,0,0,0h8.72c0.16,0,0.28-0.13,0.28-0.28v-18
		c0-0.16-0.13-0.28-0.28-0.28h-8.72c-0.28,0,0,0.28,0,0v-17.43c0-0.28-0.28,0,0,0h8.72c0.16,0,0.28-0.13,0.28-0.28v-18
		c0-0.16-0.13-0.28-0.28-0.28h-8.72c-0.28,0,0,0.28,0,0v-17.43c0-0.28-0.28,0,0,0h8.72c0.16,0,0.28-0.13,0.28-0.28v-18
		c0-0.16-0.13-0.28-0.28-0.28h-8.72c-0.28,0,0,0.28,0,0v-26.72v-9c0-0.16-0.12-0.28-0.28-0.28h-18c-0.16,0-0.28,0.13-0.28,0.28v8.72
		c0,0.28,0.28,0,0,0h-17.43c-0.28,0,0,0.28,0,0v-8.72c0-0.16-0.13-0.28-0.28-0.28h-18c-0.16,0-0.29,0.13-0.29,0.28v8.72
		c0,0.28,0.29,0,0,0h-17.43c-0.28,0,0,0.28,0,0v-8.72c0-0.16-0.12-0.28-0.28-0.28h-18c-0.16,0-0.28,0.13-0.28,0.28v8.72
		c0,0.28,0.28,0,0,0h-17.43c-0.29,0,0,0.28,0,0v-8.72c0-0.16-0.13-0.28-0.29-0.28h-18c-0.16,0-0.28,0.13-0.28,0.28v8.72
		c0,0.28,0.28,0,0,0h-17.44c-0.28,0,0,0.28,0,0v-8.72c0-0.16-0.12-0.28-0.28-0.28h-18c-0.16,0-0.28,0.13-0.28,0.28v8.72
		c0,0.28,0.28,0,0,0h-17.44c-0.28,0,0,0.28,0,0v-8.72c0-0.16-0.12-0.28-0.28-0.28h-18c-0.16,0-0.28,0.13-0.28,0.28v8.72
		c0,0.28,0.28,0,0,0h-17.43c-0.29,0,0,0.28,0,0v-8.72c0-0.16-0.13-0.28-0.29-0.28h-18c-0.16,0-0.28,0.13-0.28,0.28v8.72
		c0,0.28,0.28,0,0,0h-17.44c-0.28,0,0,0.28,0,0v-8.72c0-0.16-0.12-0.28-0.28-0.28h-18c-0.16,0-0.28,0.13-0.28,0.28v8.72
		c0,0.28,0.28,0,0,0h-17.44c-0.28,0,0,0.28,0,0v-8.72c0-0.16-0.12-0.28-0.28-0.28h-18c-0.16,0-0.28,0.13-0.28,0.28v8.72
		c0,0.28,0.28,0,0,0h-17.43c-0.28,0,0,0.28,0,0v-8.72c0-0.16-0.12-0.28-0.28-0.28h-18c-0.16,0-0.28,0.13-0.28,0.28v8.72
		c0,0.28,0.28,0,0,0h-17.44c-0.28,0,0,0.28,0,0v-8.72c0-0.16-0.12-0.28-0.28-0.28h-18c-0.16,0-0.28,0.13-0.28,0.28v8.72
		c0,0.28,0.28,0,0,0h-17.43c-0.29,0,0,0.28,0,0v-8.72c0-0.16-0.13-0.28-0.29-0.28h-18c-0.16,0-0.28,0.13-0.28,0.28v8.72
		c0,0.28,0.28,0,0,0h-17.44c-0.28,0,0,0.28,0,0v-8.72c0-0.16-0.12-0.28-0.28-0.28h-18c-0.16,0-0.28,0.13-0.28,0.28v8.72
		c0,0.28,0.28,0,0,0h-17.43c-0.29,0,0,0.28,0,0v-8.72c0-0.16-0.13-0.28-0.29-0.28h-18c-0.16,0-0.28,0.13-0.28,0.28v8.72
		c0,0.28,0.28,0,0,0h-17.43c-0.29,0,0,0.28,0,0v-8.72c0-0.16-0.13-0.28-0.29-0.28h-18c-0.16,0-0.28,0.13-0.28,0.28v8.72
		c0,0.28,0.28,0,0,0h-17.44c-0.28,0,0,0.28,0,0v-8.72c0-0.16-0.12-0.28-0.28-0.28h-18c-0.16,0-0.28,0.13-0.28,0.28v8.72
		c0,0.28,0.28,0,0,0h-17.43c-0.28,0,0,0.28,0,0v-8.72c0-0.16-0.13-0.28-0.28-0.28h-18c-0.16,0-0.28,0.13-0.28,0.28v8.72
		c0,0.28,0.28,0,0,0h-17.43c-0.28,0,0,0.28,0,0v-8.72c0-0.16-0.13-0.28-0.28-0.28h-18c-0.16,0-0.28,0.13-0.28,0.28v8.72
		c0,0.28,0.28,0,0,0h-17.43c-0.28,0,0,0.28,0,0v-8.72c0-0.16-0.13-0.28-0.28-0.28h-18c-0.16,0-0.28,0.13-0.28,0.28v8.72
		c0,0.28,0.28,0,0,0h-17.44c-0.28,0,0,0.28,0,0v-8.72c0-0.16-0.12-0.28-0.28-0.28h-18c-0.16,0-0.28,0.13-0.28,0.28v9v26.72
		c0,0.28,0.28,0,0,0h-8.72c-0.16,0-0.28,0.13-0.28,0.28v18c0,0.16,0.12,0.28,0.28,0.28h8.72c0.28,0,0-0.28,0,0v17.43
		c0,0.28,0.28,0,0,0h-8.71c-0.16,0-0.28,0.13-0.28,0.28v18c0,0.16,0.12,0.28,0.28,0.28h8.72c0.28,0,0-0.28,0,0v17.43
		c0,0.28,0.28,0,0,0h-8.71c-0.16,0-0.28,0.13-0.28,0.28v18c0,0.16,0.12,0.28,0.28,0.28h8.72c0.28,0,0-0.28,0,0v17.43
		c0,0.28,0.28,0,0,0h-8.72c-0.16,0-0.28,0.13-0.28,0.28v18c0,0.16,0.12,0.28,0.28,0.28h8.72c0.28,0,0-0.28,0,0v17.43
		c0,0.28,0.28,0,0,0h-8.71c-0.16,0-0.28,0.13-0.28,0.28v18c0,0.16,0.12,0.28,0.28,0.28h8.71c0.29,0,0-0.28,0,0v17.43
		c0,0.28,0.29,0,0,0h-8.71c-0.16,0-0.28,0.13-0.28,0.28v18c0,0.16,0.12,0.28,0.28,0.28h8.71c0.29,0,0-0.28,0,0v17.43
		c0,0.28,0.29,0,0,0h-8.71c-0.16,0-0.28,0.13-0.28,0.28v18c0,0.16,0.12,0.28,0.28,0.28h8.72c0.28,0,0-0.28,0,0v17.43
		c0,0.28,0.28,0,0,0h-8.71c-0.16,0-0.28,0.13-0.28,0.28v18c0,0.16,0.12,0.28,0.28,0.28h8.72c0.28,0,0-0.28,0,0v26.72v9
		C571.76,717.73,571.89,717.86,572.04,717.86L572.04,717.86z"/>
</g>
<g id="p-2_00000124144460986511232550000010901057625158406797_">
	<path class="st0" d="M572.04,370.79h18c0.16,0,0.28-0.13,0.28-0.28v-8.72c0-0.28-0.28,0,0,0h17.44c0.28,0,0-0.28,0,0v8.72
		c0,0.16,0.12,0.28,0.28,0.28h18c0.16,0,0.28-0.13,0.28-0.28v-8.72c0-0.28-0.28,0,0,0h17.43c0.28,0,0-0.28,0,0v8.72
		c0,0.16,0.12,0.28,0.28,0.28h18c0.16,0,0.28-0.13,0.28-0.28v-8.72c0-0.28-0.28,0,0,0h17.43c0.28,0,0-0.28,0,0v8.72
		c0,0.16,0.13,0.28,0.28,0.28h18c0.16,0,0.28-0.13,0.28-0.28v-8.72c0-0.28-0.28,0,0,0h17.44c0.28,0,0-0.28,0,0v8.72
		c0,0.16,0.12,0.28,0.28,0.28h18c0.16,0,0.28-0.13,0.28-0.28v-8.72c0-0.28-0.28,0,0,0h17.44c0.28,0,0-0.28,0,0v8.72
		c0,0.16,0.12,0.28,0.28,0.28h18c0.16,0,0.28-0.13,0.28-0.28v-8.72c0-0.28-0.28,0,0,0h17.43c0.28,0,0-0.28,0,0v8.72
		c0,0.16,0.12,0.28,0.28,0.28h18c0.16,0,0.28-0.13,0.28-0.28v-8.72c0-0.28-0.28,0,0,0h17.43c0.28,0,0-0.28,0,0v8.72
		c0,0.16,0.13,0.28,0.28,0.28h18c0.16,0,0.28-0.13,0.28-0.28v-8.72c0-0.28-0.28,0,0,0h17.44c0.28,0,0-0.28,0,0v8.72
		c0,0.16,0.12,0.28,0.28,0.28h18c0.16,0,0.28-0.13,0.28-0.28v-8.72c0-0.28-0.28,0,0,0h17.43c0.28,0,0-0.28,0,0v8.72
		c0,0.16,0.13,0.28,0.28,0.28h18c0.16,0,0.28-0.13,0.28-0.28v-8.72c0-0.28-0.28,0,0,0h17.43c0.28,0,0-0.28,0,0v8.72
		c0,0.16,0.13,0.28,0.28,0.28h18c0.16,0,0.28-0.13,0.28-0.28v-8.72c0-0.28-0.28,0,0,0h17.43c0.28,0,0-0.28,0,0v8.72
		c0,0.16,0.13,0.28,0.28,0.28h18c0.16,0,0.28-0.13,0.28-0.28v-8.72c0-0.28-0.28,0,0,0h17.43c0.28,0,0-0.28,0,0v8.72
		c0,0.16,0.13,0.28,0.28,0.28h18c0.16,0,0.28-0.13,0.28-0.28v-8.72c0-0.28-0.28,0,0,0h17.43c0.28,0,0-0.28,0,0v8.72
		c0,0.16,0.12,0.28,0.28,0.28h18c0.16,0,0.28-0.13,0.28-0.28v-8.72c0-0.28-0.28,0,0,0h17.44c0.28,0,0-0.28,0,0v8.72
		c0,0.16,0.12,0.28,0.28,0.28h18c0.16,0,0.28-0.13,0.28-0.28v-8.72c0-0.28-0.28,0,0,0h17.43c0.28,0,0-0.28,0,0v8.72
		c0,0.16,0.13,0.28,0.28,0.28h18c0.16,0,0.28-0.13,0.28-0.28v-8.72c0-0.28-0.28,0,0,0h17.44c0.28,0,0-0.28,0,0v8.72
		c0,0.16,0.12,0.28,0.28,0.28h18c0.16,0,0.28-0.13,0.28-0.28v-8.72c0-0.28-0.28,0,0,0h17.43c0.28,0,0-0.28,0,0v8.72
		c0,0.16,0.13,0.28,0.28,0.28h18c0.16,0,0.29-0.13,0.29-0.28v-8.72c0-0.28-0.29,0,0,0h17.44c0.28,0,0-0.28,0,0v8.72
		c0,0.16,0.12,0.28,0.28,0.28h18c0.16,0,0.28-0.13,0.28-0.28v-8.72c0-0.28-0.28,0,0,0h17.43c0.29,0,0-0.28,0,0v8.72
		c0,0.16,0.13,0.28,0.29,0.28h18c0.16,0,0.28-0.13,0.28-0.28v-9v-26.72c0-0.28-0.28,0,0,0h8.72c0.16,0,0.28-0.13,0.28-0.28v-18
		c0-0.16-0.13-0.28-0.28-0.28h-8.72c-0.28,0,0,0.28,0,0v-17.44c0-0.28-0.28,0,0,0h8.72c0.16,0,0.28-0.12,0.28-0.28v-18
		c0-0.16-0.13-0.28-0.28-0.28h-8.72c-0.28,0,0,0.28,0,0v-17.43c0-0.28-0.28,0,0,0h8.72c0.16,0,0.28-0.13,0.28-0.28v-18
		c0-0.16-0.13-0.28-0.28-0.28h-8.72c-0.28,0,0,0.28,0,0v-17.43c0-0.28-0.28,0,0,0h8.72c0.16,0,0.28-0.13,0.28-0.28v-18
		c0-0.16-0.13-0.28-0.28-0.28h-8.72c-0.28,0,0,0.28,0,0v-17.43c0-0.28-0.28,0,0,0h8.72c0.16,0,0.28-0.12,0.28-0.28v-18
		c0-0.16-0.13-0.28-0.28-0.28h-8.72c-0.28,0,0,0.28,0,0v-17.43c0-0.28-0.28,0,0,0h8.72c0.16,0,0.28-0.13,0.28-0.28v-18
		c0-0.16-0.13-0.28-0.28-0.28h-8.72c-0.28,0,0,0.28,0,0v-17.43c0-0.28-0.28,0,0,0h8.72c0.16,0,0.28-0.13,0.28-0.28v-18
		c0-0.16-0.13-0.28-0.28-0.28h-8.72c-0.28,0,0,0.28,0,0V82.79c0-0.28-0.28,0,0,0h8.72c0.16,0,0.28-0.12,0.28-0.28v-18
		c0-0.16-0.13-0.28-0.28-0.28h-8.72c-0.28,0,0,0.28,0,0V37.51v-9c0-0.16-0.12-0.28-0.28-0.28h-18c-0.16,0-0.28,0.12-0.28,0.28v8.72
		c0,0.28,0.28,0,0,0h-17.43c-0.28,0,0,0.28,0,0v-8.72c0-0.16-0.12-0.28-0.28-0.28h-18c-0.16,0-0.29,0.12-0.29,0.28v8.72
		c0,0.28,0.29,0,0,0h-17.43c-0.29,0,0,0.28,0,0v-8.72c0-0.16-0.13-0.28-0.29-0.28h-18c-0.16,0-0.28,0.12-0.28,0.28v8.72
		c0,0.28,0.28,0,0,0h-17.43c-0.29,0,0,0.28,0,0v-8.72c0-0.16-0.13-0.28-0.29-0.28h-18c-0.16,0-0.28,0.12-0.28,0.28v8.71
		c0,0.29,0.28,0,0,0h-17.44c-0.28,0,0,0.29,0,0v-8.72c0-0.16-0.12-0.28-0.28-0.28h-18c-0.16,0-0.28,0.12-0.28,0.28v8.71
		c0,0.29,0.28,0,0,0h-17.43c-0.28,0,0,0.29,0,0v-8.72c0-0.16-0.12-0.28-0.28-0.28h-18c-0.16,0-0.28,0.12-0.28,0.28v8.71
		c0,0.29,0.28,0,0,0h-17.43c-0.29,0,0,0.29,0,0v-8.72c0-0.16-0.13-0.28-0.29-0.28h-18c-0.16,0-0.28,0.12-0.28,0.28v8.72
		c0,0.28,0.28,0,0,0h-17.44c-0.28,0,0,0.28,0,0v-8.72c0-0.16-0.12-0.28-0.28-0.28h-18c-0.16,0-0.28,0.12-0.28,0.28v8.72
		c0,0.28,0.28,0,0,0h-17.43c-0.29,0,0,0.28,0,0v-8.72c0-0.16-0.13-0.28-0.29-0.28h-18c-0.16,0-0.28,0.12-0.28,0.28v8.72
		c0,0.28,0.28,0,0,0h-17.43c-0.29,0,0,0.28,0,0v-8.72c0-0.16-0.13-0.28-0.29-0.28h-18c-0.16,0-0.28,0.12-0.28,0.28v8.72
		c0,0.28,0.28,0,0,0h-17.44c-0.28,0,0,0.28,0,0v-8.72c0-0.16-0.12-0.28-0.28-0.28h-18c-0.16,0-0.28,0.12-0.28,0.28v8.72
		c0,0.28,0.28,0,0,0h-17.43c-0.29,0,0,0.28,0,0v-8.72c0-0.16-0.13-0.28-0.29-0.28h-18c-0.16,0-0.28,0.12-0.28,0.28v8.72
		c0,0.28,0.28,0,0,0h-17.43c-0.29,0,0,0.28,0,0v-8.72c0-0.16-0.13-0.28-0.29-0.28h-18c-0.16,0-0.28,0.12-0.28,0.28v8.72
		c0,0.28,0.28,0,0,0h-17.44c-0.28,0,0,0.28,0,0v-8.72c0-0.16-0.12-0.28-0.28-0.28h-18c-0.16,0-0.28,0.12-0.28,0.28v8.72
		c0,0.28,0.28,0,0,0h-17.43c-0.28,0,0,0.28,0,0v-8.72c0-0.16-0.12-0.28-0.28-0.28h-18c-0.16,0-0.28,0.12-0.28,0.28v8.72
		c0,0.28,0.28,0,0,0h-17.43c-0.29,0,0,0.28,0,0v-8.72c0-0.16-0.13-0.28-0.29-0.28h-18c-0.16,0-0.28,0.12-0.28,0.28v8.72
		c0,0.28,0.28,0,0,0h-17.44c-0.28,0,0,0.28,0,0v-8.72c0-0.16-0.12-0.28-0.28-0.28h-18c-0.16,0-0.28,0.12-0.28,0.28v8.72
		c0,0.28,0.28,0,0,0h-17.43c-0.28,0,0,0.28,0,0v-8.72c0-0.16-0.13-0.28-0.28-0.28h-18c-0.16,0-0.28,0.12-0.28,0.28v8.72
		c0,0.28,0.28,0,0,0h-17.43c-0.28,0,0,0.28,0,0v-8.72c0-0.16-0.12-0.28-0.28-0.28h-18c-0.16,0-0.28,0.12-0.28,0.28v8.72
		c0,0.28,0.28,0,0,0h-17.43c-0.28,0,0,0.28,0,0v-8.72c0-0.16-0.13-0.28-0.28-0.28h-18c-0.16,0-0.28,0.12-0.28,0.28v9v26.72
		c0,0.28,0.28,0,0,0h-8.71c-0.16,0-0.28,0.12-0.28,0.28v18c0,0.16,0.12,0.28,0.28,0.28h8.72c0.28,0,0-0.28,0,0v17.43
		c0,0.28,0.28,0,0,0h-8.71c-0.16,0-0.28,0.12-0.28,0.28v18c0,0.16,0.12,0.28,0.28,0.28h8.72c0.28,0,0-0.28,0,0v17.43
		c0,0.28,0.28,0,0,0h-8.72c-0.16,0-0.28,0.12-0.28,0.28v18c0,0.16,0.12,0.28,0.28,0.28h8.72c0.28,0,0-0.28,0,0v17.43
		c0,0.28,0.28,0,0,0h-8.72c-0.16,0-0.28,0.12-0.28,0.28v18c0,0.16,0.12,0.28,0.28,0.28h8.72c0.28,0,0-0.28,0,0v17.43
		c0,0.28,0.28,0,0,0h-8.71c-0.16,0-0.28,0.12-0.28,0.28v18c0,0.16,0.12,0.28,0.28,0.28h8.71c0.29,0,0-0.28,0,0v17.44
		c0,0.28,0.29,0,0,0h-8.72c-0.16,0-0.28,0.12-0.28,0.28v18c0,0.16,0.12,0.28,0.28,0.28h8.72c0.28,0,0-0.28,0,0v17.43
		c0,0.28,0.28,0,0,0h-8.72c-0.16,0-0.28,0.12-0.28,0.28v18c0,0.16,0.12,0.28,0.28,0.28h8.72c0.28,0,0-0.28,0,0v17.43
		c0,0.28,0.28,0,0,0h-8.72c-0.16,0-0.28,0.12-0.28,0.28v18c0,0.16,0.12,0.28,0.28,0.28h8.71c0.29,0,0-0.28,0,0v26.72v9
		C571.76,370.66,571.89,370.79,572.04,370.79L572.04,370.79z"/>
</g>
<g id="p-3_00000070819958455362315480000005588421476009689767_">
	<path class="st1" d="M386.98,370.79h18c0.16,0,0.28-0.13,0.28-0.28v-8.72c0-0.28-0.28,0,0,0h17.43c0.28,0,0-0.28,0,0v8.72
		c0,0.16,0.13,0.28,0.28,0.28h18c0.16,0,0.28-0.13,0.28-0.28v-8.72c0-0.28-0.28,0,0,0h17.43c0.28,0,0-0.28,0,0v8.72
		c0,0.16,0.13,0.28,0.28,0.28h18c0.16,0,0.28-0.13,0.28-0.28v-8.72c0-0.28-0.28,0,0,0h17.43c0.28,0,0-0.28,0,0v8.72
		c0,0.16,0.13,0.28,0.28,0.28h18c0.16,0,0.28-0.13,0.28-0.28v-8.72c0-0.28-0.28,0,0,0h17.43c0.28,0,0-0.28,0,0v8.72
		c0,0.16,0.13,0.28,0.28,0.28h18h9c0.16,0,0.28-0.13,0.28-0.28v-9v-27c0-0.16-0.13-0.28-0.28-0.28h-8.72c-0.28,0,0,0.28,0,0v-17.43
		c0-0.28-0.28,0,0,0h8.72c0.16,0,0.28-0.13,0.28-0.28v-18c0-0.16-0.13-0.28-0.28-0.28h-8.72c-0.28,0,0,0.28,0,0v-17.43
		c0-0.28-0.28,0,0,0h8.72c0.16,0,0.28-0.13,0.28-0.28v-18c0-0.16-0.13-0.28-0.28-0.28h-8.72c-0.28,0,0,0.28,0,0v-17.43
		c0-0.28-0.28,0,0,0h8.72c0.16,0,0.28-0.13,0.28-0.28v-18c0-0.16-0.13-0.28-0.28-0.28h-8.72c-0.28,0,0,0.28,0,0v-17.43
		c0-0.28-0.28,0,0,0h8.72c0.16,0,0.28-0.13,0.28-0.28v-18c0-0.16-0.13-0.28-0.28-0.28h-8.72c-0.28,0,0,0.28,0,0v-17.43
		c0-0.28-0.28,0,0,0h8.72c0.16,0,0.28-0.13,0.28-0.28v-18c0-0.16-0.13-0.28-0.28-0.28h-8.72c-0.28,0,0,0.28,0,0v-17.43
		c0-0.28-0.28,0,0,0h8.72c0.16,0,0.28-0.13,0.28-0.28v-18c0-0.16-0.13-0.28-0.28-0.28h-8.72c-0.28,0,0,0.28,0,0v-17.43
		c0-0.28-0.28,0,0,0h8.72c0.16,0,0.28-0.13,0.28-0.28v-18c0-0.16-0.13-0.28-0.28-0.28h-8.72c-0.28,0,0,0.28,0,0V64.79
		c0-0.28-0.28,0,0,0h8.72c0.16,0,0.28-0.13,0.28-0.28v-27v-9c0-0.16-0.13-0.28-0.28-0.28h-9h-18c-0.16,0-0.28,0.12-0.28,0.28v8.72
		c0,0.28,0.28,0,0,0h-17.43c-0.28,0,0,0.28,0,0v-8.72c0-0.16-0.13-0.28-0.28-0.28h-18c-0.16,0-0.28,0.12-0.28,0.28v8.72
		c0,0.28,0.28,0,0,0h-17.43c-0.28,0,0,0.28,0,0v-8.72c0-0.16-0.13-0.28-0.28-0.28h-18c-0.16,0-0.28,0.12-0.28,0.28v8.72
		c0,0.28,0.28,0,0,0h-17.43c-0.28,0,0,0.28,0,0v-8.72c0-0.16-0.13-0.28-0.28-0.28h-18c-0.16,0-0.28,0.12-0.28,0.28v8.72
		c0,0.28,0.28,0,0,0h-17.43c-0.28,0,0,0.28,0,0v-8.72c0-0.16-0.13-0.28-0.28-0.28h-18h-9c-0.16,0-0.28,0.12-0.28,0.28v9v27
		c0,0.16,0.13,0.28,0.28,0.28h8.72c0.28,0,0-0.28,0,0v17.43c0,0.28,0.28,0,0,0h-8.72c-0.16,0-0.28,0.12-0.28,0.28v18
		c0,0.16,0.13,0.28,0.28,0.28h8.72c0.28,0,0-0.28,0,0v17.43c0,0.28,0.28,0,0,0h-8.72c-0.16,0-0.28,0.12-0.28,0.28v18
		c0,0.16,0.13,0.28,0.28,0.28h8.72c0.28,0,0-0.28,0,0v17.43c0,0.28,0.28,0,0,0h-8.72c-0.16,0-0.28,0.12-0.28,0.28v18
		c0,0.16,0.13,0.28,0.28,0.28h8.72c0.28,0,0-0.28,0,0v17.43c0,0.28,0.28,0,0,0h-8.72c-0.16,0-0.28,0.12-0.28,0.28v18
		c0,0.16,0.13,0.28,0.28,0.28h8.72c0.28,0,0-0.28,0,0v17.43c0,0.28,0.28,0,0,0h-8.72c-0.16,0-0.28,0.12-0.28,0.28v18
		c0,0.16,0.13,0.28,0.28,0.28h8.72c0.28,0,0-0.28,0,0v17.43c0,0.28,0.28,0,0,0h-8.72c-0.16,0-0.28,0.12-0.28,0.28v18
		c0,0.16,0.13,0.28,0.28,0.28h8.72c0.28,0,0-0.28,0,0v17.43c0,0.28,0.28,0,0,0h-8.72c-0.16,0-0.28,0.12-0.28,0.28v18
		c0,0.16,0.13,0.28,0.28,0.28h8.72c0.28,0,0-0.28,0,0v17.43c0,0.28,0.28,0,0,0h-8.72c-0.16,0-0.28,0.12-0.28,0.28v27v9
		c0,0.16,0.13,0.28,0.28,0.28H386.98z"/>
</g>
<g id="p-4_00000078750012079114015660000013928600352221070007_">
	<path class="st1" d="M16.84,724.32h17.72c0.28,0,0-0.28,0,0v8.72c0,0.16,0.13,0.28,0.28,0.28h18c0.16,0,0.28-0.13,0.28-0.28v-8.72
		c0-0.28-0.28,0,0,0h17.43c0.28,0,0-0.28,0,0v8.72c0,0.16,0.13,0.28,0.28,0.28h18c0.16,0,0.28-0.13,0.28-0.28v-8.72
		c0-0.28-0.28,0,0,0h17.43c0.28,0,0-0.28,0,0v8.72c0,0.16,0.13,0.28,0.28,0.28h18c0.16,0,0.28-0.13,0.28-0.28v-8.72
		c0-0.28-0.28,0,0,0h17.43c0.28,0,0-0.28,0,0v8.72c0,0.16,0.13,0.28,0.28,0.28h18c0.16,0,0.28-0.13,0.28-0.28v-8.72
		c0-0.28-0.28,0,0,0h17.72c0.16,0,0.28-0.13,0.28-0.28v-17.72c0-0.28-0.28,0,0,0h8.72c0.16,0,0.28-0.13,0.28-0.28v-18
		c0-0.16-0.13-0.28-0.28-0.28h-8.72c-0.28,0,0,0.28,0,0v-17.43c0-0.28-0.28,0,0,0h8.72c0.16,0,0.28-0.13,0.28-0.28v-18
		c0-0.16-0.13-0.28-0.28-0.28h-8.72c-0.28,0,0,0.28,0,0v-17.43c0-0.28-0.28,0,0,0h8.72c0.16,0,0.28-0.13,0.28-0.28v-18
		c0-0.16-0.13-0.28-0.28-0.28h-8.72c-0.28,0,0,0.28,0,0v-17.43c0-0.28-0.28,0,0,0h8.72c0.16,0,0.28-0.13,0.28-0.28v-18
		c0-0.16-0.13-0.28-0.28-0.28h-8.72c-0.28,0,0,0.28,0,0v-17.43c0-0.28-0.28,0,0,0h8.72c0.16,0,0.28-0.13,0.28-0.28v-18
		c0-0.16-0.13-0.28-0.28-0.28h-8.72c-0.28,0,0,0.28,0,0v-17.43c0-0.28-0.28,0,0,0h8.72c0.16,0,0.28-0.13,0.28-0.28v-18
		c0-0.16-0.13-0.28-0.28-0.28h-8.72c-0.28,0,0,0.28,0,0v-17.43c0-0.28-0.28,0,0,0h8.72c0.16,0,0.28-0.13,0.28-0.28v-18
		c0-0.16-0.13-0.28-0.28-0.28h-8.72c-0.28,0,0,0.28,0,0v-17.43c0-0.28-0.28,0,0,0h8.72c0.16,0,0.28-0.13,0.28-0.28v-18
		c0-0.16-0.13-0.28-0.28-0.28h-8.72c-0.28,0,0,0.28,0,0v-17.43c0-0.28-0.28,0,0,0h8.72c0.16,0,0.28-0.13,0.28-0.28v-18
		c0-0.16-0.13-0.28-0.28-0.28h-8.72c-0.28,0,0,0.28,0,0v-17.43c0-0.28-0.28,0,0,0h8.72c0.16,0,0.28-0.13,0.28-0.28v-18
		c0-0.16-0.13-0.28-0.28-0.28h-8.72c-0.28,0,0,0.28,0,0v-17.43c0-0.28-0.28,0,0,0h8.72c0.16,0,0.28-0.13,0.28-0.28v-18
		c0-0.16-0.13-0.28-0.28-0.28h-8.72c-0.28,0,0,0.28,0,0v-17.43c0-0.28-0.28,0,0,0h8.72c0.16,0,0.28-0.13,0.28-0.28v-18
		c0-0.16-0.13-0.28-0.28-0.28h-8.72c-0.28,0,0,0.28,0,0v-17.43c0-0.28-0.28,0,0,0h8.72c0.16,0,0.28-0.13,0.28-0.28v-18
		c0-0.16-0.13-0.28-0.28-0.28h-8.72c-0.28,0,0,0.28,0,0v-17.43c0-0.28-0.28,0,0,0h8.72c0.16,0,0.28-0.13,0.28-0.28v-18
		c0-0.16-0.13-0.28-0.28-0.28h-8.72c-0.28,0,0,0.28,0,0v-17.43c0-0.28-0.28,0,0,0h8.72c0.16,0,0.28-0.13,0.28-0.28v-18
		c0-0.16-0.13-0.28-0.28-0.28h-8.72c-0.28,0,0,0.28,0,0v-17.43c0-0.28-0.28,0,0,0h8.72c0.16,0,0.28-0.13,0.28-0.28v-18
		c0-0.16-0.13-0.28-0.28-0.28h-8.72c-0.28,0,0,0.28,0,0v-17.43c0-0.28-0.28,0,0,0h8.72c0.16,0,0.28-0.13,0.28-0.28v-18
		c0-0.16-0.13-0.28-0.28-0.28h-8.72c-0.28,0,0,0.28,0,0V94.32c0-0.28-0.28,0,0,0h8.72c0.16,0,0.28-0.13,0.28-0.28v-18
		c0-0.16-0.13-0.28-0.28-0.28h-8.72c-0.28,0,0,0.28,0,0V58.32c0-0.28-0.28,0,0,0h8.72c0.16,0,0.28-0.13,0.28-0.28v-18
		c0-0.16-0.13-0.28-0.28-0.28h-8.72c-0.28,0,0,0.28,0,0V22.04c0-0.16-0.13-0.28-0.28-0.28h-17.72c-0.28,0,0,0.28,0,0v-8.72
		c0-0.16-0.13-0.28-0.28-0.28h-18c-0.16,0-0.28,0.13-0.28,0.28v8.72c0,0.28,0.28,0,0,0h-17.43c-0.28,0,0,0.28,0,0v-8.72
		c0-0.16-0.13-0.28-0.28-0.28h-18c-0.16,0-0.28,0.13-0.28,0.28v8.72c0,0.28,0.28,0,0,0H89.13c-0.28,0,0,0.28,0,0v-8.72
		c0-0.16-0.13-0.28-0.28-0.28h-18c-0.16,0-0.28,0.13-0.28,0.28v8.72c0,0.28,0.28,0,0,0H53.13c-0.28,0,0,0.28,0,0v-8.72
		c0-0.16-0.13-0.28-0.28-0.28h-18c-0.16,0-0.28,0.13-0.28,0.28v8.72c0,0.28,0.28,0,0,0H16.84c-0.16,0-0.28,0.13-0.28,0.28v17.72
		c0,0.28,0.28,0,0,0H7.84c-0.16,0-0.28,0.13-0.28,0.28v18c0,0.16,0.13,0.28,0.28,0.28h8.72c0.28,0,0-0.28,0,0v17.43
		c0,0.28,0.28,0,0,0H7.84c-0.16,0-0.28,0.13-0.28,0.28v18c0,0.16,0.13,0.28,0.28,0.28h8.72c0.28,0,0-0.28,0,0v17.43
		c0,0.28,0.28,0,0,0H7.84c-0.16,0-0.28,0.13-0.28,0.28v18c0,0.16,0.13,0.28,0.28,0.28h8.72c0.28,0,0-0.28,0,0v17.43
		c0,0.28,0.28,0,0,0H7.84c-0.16,0-0.28,0.13-0.28,0.28v18c0,0.16,0.13,0.28,0.28,0.28h8.72c0.28,0,0-0.28,0,0v17.43
		c0,0.28,0.28,0,0,0H7.84c-0.16,0-0.28,0.13-0.28,0.28v18c0,0.16,0.13,0.28,0.28,0.28h8.72c0.28,0,0-0.28,0,0v17.43
		c0,0.28,0.28,0,0,0H7.84c-0.16,0-0.28,0.13-0.28,0.28v18c0,0.16,0.13,0.28,0.28,0.28h8.72c0.28,0,0-0.28,0,0v17.43
		c0,0.28,0.28,0,0,0H7.84c-0.16,0-0.28,0.13-0.28,0.28v18c0,0.16,0.13,0.28,0.28,0.28h8.72c0.28,0,0-0.28,0,0v17.43
		c0,0.28,0.28,0,0,0H7.84c-0.16,0-0.28,0.13-0.28,0.28v18c0,0.16,0.13,0.28,0.28,0.28h8.72c0.28,0,0-0.28,0,0v17.43
		c0,0.28,0.28,0,0,0H7.84c-0.16,0-0.28,0.13-0.28,0.28v18c0,0.16,0.13,0.28,0.28,0.28h8.72c0.28,0,0-0.28,0,0v17.43
		c0,0.28,0.28,0,0,0H7.84c-0.16,0-0.28,0.13-0.28,0.28v18c0,0.16,0.13,0.28,0.28,0.28h8.72c0.28,0,0-0.28,0,0v17.43
		c0,0.28,0.28,0,0,0H7.84c-0.16,0-0.28,0.13-0.28,0.28v18c0,0.16,0.13,0.28,0.28,0.28h8.72c0.28,0,0-0.28,0,0v17.43
		c0,0.28,0.28,0,0,0H7.84c-0.16,0-0.28,0.13-0.28,0.28v18c0,0.16,0.13,0.28,0.28,0.28h8.72c0.28,0,0-0.28,0,0v17.43
		c0,0.28,0.28,0,0,0H7.84c-0.16,0-0.28,0.13-0.28,0.28v18c0,0.16,0.13,0.28,0.28,0.28h8.72c0.28,0,0-0.28,0,0v17.43
		c0,0.28,0.28,0,0,0H7.84c-0.16,0-0.28,0.13-0.28,0.28v18c0,0.16,0.13,0.28,0.28,0.28h8.72c0.28,0,0-0.28,0,0v17.43
		c0,0.28,0.28,0,0,0H7.84c-0.16,0-0.28,0.13-0.28,0.28v18c0,0.16,0.13,0.28,0.28,0.28h8.72c0.28,0,0-0.28,0,0v17.43
		c0,0.28,0.28,0,0,0H7.84c-0.16,0-0.28,0.13-0.28,0.28v18c0,0.16,0.13,0.28,0.28,0.28h8.72c0.28,0,0-0.28,0,0v17.43
		c0,0.28,0.28,0,0,0H7.84c-0.16,0-0.28,0.13-0.28,0.28v18c0,0.16,0.13,0.28,0.28,0.28h8.72c0.28,0,0-0.28,0,0v17.43
		c0,0.28,0.28,0,0,0H7.84c-0.16,0-0.28,0.13-0.28,0.28v18c0,0.16,0.13,0.28,0.28,0.28h8.72c0.28,0,0-0.28,0,0v17.43
		c0,0.28,0.28,0,0,0H7.84c-0.16,0-0.28,0.13-0.28,0.28v18c0,0.16,0.13,0.28,0.28,0.28h8.72c0.28,0,0-0.28,0,0v17.72
		C16.56,724.2,16.69,724.32,16.84,724.32z"/>
</g>
<g id="p-5_00000013888552692704039800000005386527391769356956_">
	<path class="st1" d="M201.91,724.32h17.72c0.28,0,0-0.28,0,0v8.72c0,0.16,0.12,0.28,0.28,0.28h18c0.16,0,0.28-0.13,0.28-0.28v-8.72
		c0-0.28-0.28,0,0,0h17.44c0.28,0,0-0.28,0,0v8.72c0,0.16,0.12,0.28,0.28,0.28h18c0.16,0,0.28-0.13,0.28-0.28v-8.72
		c0-0.28-0.28,0,0,0h17.43c0.28,0,0-0.28,0,0v8.72c0,0.16,0.12,0.28,0.28,0.28h18c0.16,0,0.28-0.13,0.28-0.28v-8.72
		c0-0.28-0.28,0,0,0h17.43c0.28,0,0-0.28,0,0v8.72c0,0.16,0.13,0.28,0.28,0.28h18c0.16,0,0.28-0.13,0.28-0.28v-8.72
		c0-0.28-0.28,0,0,0h17.71c0.16,0,0.28-0.13,0.28-0.28v-17.72c0-0.28-0.28,0,0,0h8.72c0.16,0,0.28-0.13,0.28-0.28v-18
		c0-0.16-0.12-0.28-0.28-0.28h-8.72c-0.28,0,0,0.28,0,0v-17.43c0-0.28-0.28,0,0,0h8.72c0.16,0,0.28-0.13,0.28-0.28v-18
		c0-0.16-0.12-0.28-0.28-0.28h-8.72c-0.28,0,0,0.28,0,0v-17.43c0-0.28-0.28,0,0,0h8.72c0.16,0,0.28-0.13,0.28-0.28v-18
		c0-0.16-0.12-0.28-0.28-0.28h-8.72c-0.28,0,0,0.28,0,0v-17.43c0-0.28-0.28,0,0,0h8.71c0.16,0,0.28-0.13,0.28-0.28v-18
		c0-0.16-0.12-0.28-0.28-0.28h-8.72c-0.28,0,0,0.28,0,0v-17.43c0-0.28-0.28,0,0,0h8.71c0.16,0,0.28-0.13,0.28-0.28v-18
		c0-0.16-0.12-0.28-0.28-0.28h-8.72c-0.28,0,0,0.28,0,0v-17.43c0-0.28-0.28,0,0,0h8.71c0.16,0,0.28-0.13,0.28-0.28v-18
		c0-0.16-0.12-0.28-0.28-0.28h-8.72c-0.28,0,0,0.28,0,0v-17.43c0-0.28-0.28,0,0,0h8.71c0.16,0,0.28-0.13,0.28-0.28v-18
		c0-0.16-0.12-0.28-0.28-0.28h-8.72c-0.28,0,0,0.28,0,0v-17.43c0-0.28-0.28,0,0,0h8.72c0.16,0,0.28-0.13,0.28-0.28v-18
		c0-0.16-0.12-0.28-0.28-0.28h-8.72c-0.28,0,0,0.28,0,0v-17.43c0-0.28-0.28,0,0,0h8.71c0.16,0,0.28-0.13,0.28-0.28v-18
		c0-0.16-0.12-0.28-0.28-0.28h-8.72c-0.28,0,0,0.28,0,0v-17.43c0-0.28-0.28,0,0,0h8.72c0.16,0,0.28-0.13,0.28-0.28v-18
		c0-0.16-0.12-0.28-0.28-0.28h-8.72c-0.28,0,0,0.28,0,0v-17.43c0-0.28-0.28,0,0,0h8.72c0.16,0,0.28-0.13,0.28-0.28v-18
		c0-0.16-0.12-0.28-0.28-0.28h-8.72c-0.28,0,0,0.28,0,0v-17.43c0-0.28-0.28,0,0,0h8.71c0.16,0,0.28-0.13,0.28-0.28v-18
		c0-0.16-0.12-0.28-0.28-0.28h-8.72c-0.28,0,0,0.28,0,0v-17.43c0-0.28-0.28,0,0,0h8.72c0.16,0,0.28-0.13,0.28-0.28v-18
		c0-0.16-0.12-0.28-0.28-0.28h-8.72c-0.28,0,0,0.28,0,0v-17.43c0-0.28-0.28,0,0,0h8.72c0.16,0,0.28-0.13,0.28-0.28v-18
		c0-0.16-0.12-0.28-0.28-0.28h-8.72c-0.28,0,0,0.28,0,0v-17.43c0-0.28-0.28,0,0,0h8.72c0.16,0,0.28-0.13,0.28-0.28v-18
		c0-0.16-0.12-0.28-0.28-0.28h-8.72c-0.28,0,0,0.28,0,0v-17.43c0-0.28-0.28,0,0,0h8.71c0.16,0,0.28-0.13,0.28-0.28v-18
		c0-0.16-0.12-0.28-0.28-0.28h-8.72c-0.28,0,0,0.28,0,0v-17.43c0-0.28-0.28,0,0,0h8.72c0.16,0,0.28-0.13,0.28-0.28v-18
		c0-0.16-0.12-0.28-0.28-0.28h-8.72c-0.28,0,0,0.28,0,0V94.32c0-0.28-0.28,0,0,0h8.71c0.16,0,0.28-0.13,0.28-0.28v-18
		c0-0.16-0.12-0.28-0.28-0.28h-8.72c-0.28,0,0,0.28,0,0V58.32c0-0.28-0.28,0,0,0h8.72c0.16,0,0.28-0.13,0.28-0.28v-18
		c0-0.16-0.12-0.28-0.28-0.28h-8.72c-0.28,0,0,0.28,0,0V22.04c0-0.16-0.12-0.28-0.28-0.28h-17.72c-0.28,0,0,0.28,0,0v-8.72
		c0-0.16-0.12-0.28-0.28-0.28h-18c-0.16,0-0.28,0.13-0.28,0.28v8.72c0,0.28,0.28,0,0,0h-17.43c-0.29,0,0,0.28,0,0v-8.72
		c0-0.16-0.13-0.28-0.29-0.28h-18c-0.16,0-0.28,0.13-0.28,0.28v8.72c0,0.28,0.28,0,0,0h-17.43c-0.28,0,0,0.28,0,0v-8.72
		c0-0.16-0.12-0.28-0.28-0.28h-18c-0.16,0-0.28,0.13-0.28,0.28v8.72c0,0.28,0.28,0,0,0h-17.44c-0.28,0,0,0.28,0,0v-8.72
		c0-0.16-0.12-0.28-0.28-0.28h-18c-0.16,0-0.28,0.13-0.28,0.28v8.72c0,0.28,0.28,0,0,0h-17.72c-0.16,0-0.28,0.13-0.28,0.28v17.72
		c0,0.28,0.28,0,0,0h-8.72c-0.16,0-0.28,0.13-0.28,0.28v18c0,0.16,0.12,0.28,0.28,0.28h8.72c0.28,0,0-0.28,0,0v17.43
		c0,0.28,0.28,0,0,0h-8.72c-0.16,0-0.28,0.13-0.28,0.28v18c0,0.16,0.12,0.28,0.28,0.28h8.72c0.28,0,0-0.28,0,0v17.43
		c0,0.28,0.28,0,0,0h-8.72c-0.16,0-0.28,0.13-0.28,0.28v18c0,0.16,0.12,0.28,0.28,0.28h8.72c0.28,0,0-0.28,0,0v17.43
		c0,0.28,0.28,0,0,0h-8.71c-0.16,0-0.28,0.13-0.28,0.28v18c0,0.16,0.12,0.28,0.28,0.28h8.71c0.28,0,0-0.28,0,0v17.43
		c0,0.28,0.28,0,0,0h-8.72c-0.16,0-0.28,0.13-0.28,0.28v18c0,0.16,0.12,0.28,0.28,0.28h8.71c0.28,0,0-0.28,0,0v17.43
		c0,0.28,0.28,0,0,0h-8.71c-0.16,0-0.28,0.13-0.28,0.28v18c0,0.16,0.12,0.28,0.28,0.28h8.72c0.28,0,0-0.28,0,0v17.43
		c0,0.28,0.28,0,0,0h-8.72c-0.16,0-0.28,0.13-0.28,0.28v18c0,0.16,0.12,0.28,0.28,0.28h8.72c0.28,0,0-0.28,0,0v17.43
		c0,0.28,0.28,0,0,0h-8.71c-0.16,0-0.28,0.13-0.28,0.28v18c0,0.16,0.12,0.28,0.28,0.28h8.71c0.28,0,0-0.28,0,0v17.43
		c0,0.28,0.28,0,0,0h-8.71c-0.16,0-0.28,0.13-0.28,0.28v18c0,0.16,0.12,0.28,0.28,0.28h8.72c0.28,0,0-0.28,0,0v17.43
		c0,0.28,0.28,0,0,0h-8.72c-0.16,0-0.28,0.13-0.28,0.28v18c0,0.16,0.12,0.28,0.28,0.28h8.72c0.28,0,0-0.28,0,0v17.43
		c0,0.28,0.28,0,0,0h-8.71c-0.16,0-0.28,0.13-0.28,0.28v18c0,0.16,0.12,0.28,0.28,0.28h8.72c0.28,0,0-0.28,0,0v17.43
		c0,0.28,0.28,0,0,0h-8.72c-0.16,0-0.28,0.13-0.28,0.28v18c0,0.16,0.12,0.28,0.28,0.28h8.72c0.28,0,0-0.28,0,0v17.43
		c0,0.28,0.28,0,0,0h-8.71c-0.16,0-0.28,0.13-0.28,0.28v18c0,0.16,0.12,0.28,0.28,0.28h8.72c0.28,0,0-0.28,0,0v17.43
		c0,0.28,0.28,0,0,0h-8.72c-0.16,0-0.28,0.13-0.28,0.28v18c0,0.16,0.12,0.28,0.28,0.28h8.72c0.28,0,0-0.28,0,0v17.43
		c0,0.28,0.28,0,0,0h-8.72c-0.16,0-0.28,0.13-0.28,0.28v18c0,0.16,0.12,0.28,0.28,0.28h8.72c0.28,0,0-0.28,0,0v17.43
		c0,0.28,0.28,0,0,0h-8.72c-0.16,0-0.28,0.13-0.28,0.28v18c0,0.16,0.12,0.28,0.28,0.28h8.71c0.28,0,0-0.28,0,0v17.43
		c0,0.28,0.28,0,0,0h-8.72c-0.16,0-0.28,0.13-0.28,0.28v18c0,0.16,0.12,0.28,0.28,0.28h8.72c0.28,0,0-0.28,0,0v17.43
		c0,0.28,0.28,0,0,0h-8.71c-0.16,0-0.28,0.13-0.28,0.28v18c0,0.16,0.12,0.28,0.28,0.28h8.72c0.28,0,0-0.28,0,0v17.43
		c0,0.28,0.28,0,0,0h-8.72c-0.16,0-0.28,0.13-0.28,0.28v18c0,0.16,0.12,0.28,0.28,0.28h8.72c0.28,0,0-0.28,0,0v17.72
		C201.63,724.2,201.75,724.32,201.91,724.32z"/>
</g>
<path class="st0" d="M520.78,340.61h-105.6c-5.62,0-10.22-4.6-10.22-10.22V285.8c0-5.62,4.6-10.22,10.22-10.22h105.6
	c5.62,0,10.22,4.6,10.22,10.22v44.59C531,336.01,526.4,340.61,520.78,340.61z"/>
<path class="st0" d="M290.51,594.79h42.81c4.18,0,7.6-3.42,7.6-7.6v-35.32c0-4.18-3.42-7.6-7.6-7.6h-42.81c-4.18,0-7.6,3.42-7.6,7.6
	v35.32C282.91,591.37,286.33,594.79,290.51,594.79z"/>
<path class="st0" d="M290.51,156.63h42.81c4.18,0,7.6-3.42,7.6-7.6v-35.24c0-4.18-3.42-7.6-7.6-7.6h-42.81c-4.18,0-7.6,3.42-7.6,7.6
	v35.24C282.91,153.21,286.33,156.63,290.51,156.63z"/>
<path class="st2" d="M427.66,665.25c0,6.91-3.84,12.93-9.5,16.02h-17.5c-5.66-3.09-9.5-9.11-9.5-16.02s3.84-12.92,9.5-16.02h17.5
	C423.82,652.33,427.66,658.34,427.66,665.25z"/>
<path class="st2" d="M472.56,665.25c0,6.91-3.84,12.93-9.5,16.02h-17.5c-5.66-3.09-9.5-9.11-9.5-16.02s3.84-12.92,9.5-16.02h17.5
	C468.72,652.33,472.56,658.34,472.56,665.25z"/>
<rect x="489.02" y="629.64" class="st2" width="37.15" height="19.58"/>
<rect x="489.02" y="661.68" class="st2" width="37.15" height="19.58"/>
<g>
	<path class="st3" d="M414.49,409.43l-1.88,14.23h-5.62l-2.14-14.23h3.9c0.45,3.92,0.78,7.24,0.97,9.95
		c0.19-2.74,0.39-5.18,0.61-7.3l0.26-2.65H414.49z"/>
	<path class="st3" d="M415.11,409.43h2.77c1.79,0,3,0.08,3.63,0.25s1.11,0.43,1.44,0.81s0.53,0.79,0.62,1.25s0.12,1.36,0.12,2.71
		v4.98c0,1.28-0.06,2.13-0.18,2.56s-0.33,0.77-0.63,1.01s-0.67,0.41-1.11,0.51s-1.1,0.15-1.99,0.15h-4.67V409.43z M418.81,411.86
		v9.36c0.53,0,0.86-0.11,0.98-0.32s0.18-0.8,0.18-1.74v-5.53c0-0.64-0.02-1.06-0.06-1.24s-0.13-0.31-0.28-0.4
		S419.22,411.86,418.81,411.86z"/>
	<path class="st3" d="M436.48,409.43v14.23h-3.23l0-9.61l-1.29,9.61h-2.29l-1.36-9.39l0,9.39h-3.23v-14.23h4.79
		c0.14,0.86,0.29,1.86,0.44,3.02l0.53,3.62l0.85-6.64H436.48z"/>
	<path class="st3" d="M445.38,416.6v2.45h-4.67v-2.45H445.38z"/>
	<path class="st3" d="M450.68,416.6v2.45h-4.67v-2.45H450.68z"/>
	<path class="st3" d="M462.46,421.23v2.43h-7.81l0-2.03c2.31-3.79,3.69-6.13,4.13-7.03c0.44-0.9,0.65-1.6,0.65-2.1
		c0-0.39-0.07-0.68-0.2-0.87c-0.13-0.19-0.33-0.29-0.6-0.29s-0.47,0.11-0.6,0.32c-0.13,0.21-0.2,0.63-0.2,1.26v1.35h-3.18v-0.52
		c0-0.8,0.04-1.43,0.12-1.89s0.28-0.91,0.61-1.36s0.74-0.78,1.26-1.01s1.13-0.34,1.85-0.34c1.41,0,2.48,0.35,3.2,1.05
		s1.09,1.59,1.09,2.66c0,0.81-0.2,1.68-0.61,2.58s-1.61,2.84-3.6,5.78H462.46z"/>
	<path class="st3" d="M471.49,421.23v2.43h-7.81l0-2.03c2.31-3.79,3.69-6.13,4.13-7.03c0.44-0.9,0.65-1.6,0.65-2.1
		c0-0.39-0.07-0.68-0.2-0.87c-0.13-0.19-0.33-0.29-0.6-0.29s-0.47,0.11-0.6,0.32c-0.13,0.21-0.2,0.63-0.2,1.26v1.35h-3.18v-0.52
		c0-0.8,0.04-1.43,0.12-1.89s0.28-0.91,0.61-1.36s0.74-0.78,1.26-1.01s1.13-0.34,1.85-0.34c1.41,0,2.48,0.35,3.2,1.05
		s1.09,1.59,1.09,2.66c0,0.81-0.2,1.68-0.61,2.58s-1.61,2.84-3.6,5.78H471.49z"/>
</g>
</svg>
